<?xml version="1.0"?>
<svg fill="#F5F8FF" id="Layer_2" data-name="Layer 2" xmlns="http://www.w3.org/2000/svg" viewBox="0 0 293.13 39.05">
  <defs></defs>
  <g id="Layer_1-2" data-name="Layer 1">
    <g>
      <g>
        <path class="cls-1" d="M56.85,28.25l-.06-1.91c4.11.32,7.77.49,10.78.49,1.1,0,2.1-.02,3.01-.06v-4.28l-9.59-.87c-3.2-.3-4.32-1.27-4.32-3.85,0-3.05,1.48-4.07,6.06-4.07,3.73,0,6.5.06,9.11.23l.06,1.91c-3.45-.3-6.84-.44-9.81-.44-1.19,0-2.29.02-3.3.06v4.24l9.26.85c3.49.32,4.66,1.23,4.66,3.9,0,3.11-1.52,4.09-6.48,4.09-2.82,0-5.55-.08-9.36-.28Z"></path>
        <path class="cls-1" d="M76.5,28.32v-14.4h10.36c3.81,0,5.21,1.08,5.21,4.55s-1.42,4.55-5.21,4.55h-8.45v5.29h-1.91ZM78.4,21.33h11.54v-5.72h-11.54v5.72Z"></path>
        <path class="cls-1" d="M103.33,13.91l7.88,14.3v.11h-2.12l-2.03-3.75h-10.42l-2.03,3.75h-2.01v-.11l7.84-14.3h2.9ZM97.56,22.87h8.58l-4.26-7.9h-.04l-4.28,7.9Z"></path>
        <path class="cls-1" d="M112.68,21.11c0-6.54.87-7.41,7.48-7.41,3.05,0,5.99.06,8.24.19l.06,1.91c-3.56-.28-6.86-.4-9.98-.4-1.27,0-2.5.02-3.69.06v11.31c1.12.04,2.31.06,3.56.06,3.28,0,6.88-.15,10.21-.4l-.06,1.91c-2.14.13-5.51.19-8.34.19-6.59,0-7.48-.89-7.48-7.41Z"></path>
        <path class="cls-1" d="M132.48,28.32v-14.4h15.12v1.69h-13.22v4.55h9.93v1.69h-9.93v4.77h13.32v1.69h-15.23Z"></path>
        <path class="cls-1" d="M158.28,28.32v-14.4h3.35l6.44,9.68h.04l6.46-9.68h3.3v14.4h-1.91v-13.34h-.04l-6.67,9.95h-2.41l-6.61-9.95h-.04v13.34h-1.91Z"></path>
        <path class="cls-1" d="M191.46,13.91l7.88,14.3v.11h-2.12l-2.03-3.75h-10.42l-2.03,3.75h-2.01v-.11l7.84-14.3h2.9ZM185.7,22.87h8.58l-4.26-7.9h-.04l-4.28,7.9Z"></path>
        <path class="cls-1" d="M212.15,22.28l6.21,5.93v.11h-2.52l-6.25-6.04h-5.49v6.04h-1.91v-14.4h10.74c3.77,0,5.21,1.16,5.21,4.17s-1.44,4.19-5.21,4.19h-.78ZM204.1,15.61v4.98h11.92v-4.98h-11.92Z"></path>
        <path class="cls-1" d="M229.66,20.12l8.54,8.09v.11h-2.63l-7.39-7.07-3.79,2.88v4.19h-1.91v-14.4h1.91v8.05l10.59-8.05h2.75v.11l-8.07,6.1Z"></path>
        <path class="cls-1" d="M241.26,28.32v-14.4h15.12v1.69h-13.22v4.55h9.93v1.69h-9.93v4.77h13.32v1.69h-15.23Z"></path>
        <path class="cls-1" d="M265.84,28.32v-12.71h-7.56v-1.69h17.03v1.69h-7.56v12.71h-1.91Z"></path>
        <path class="cls-1" d="M277.29,28.25l-.06-1.91c4.11.32,7.77.49,10.78.49,1.1,0,2.1-.02,3.01-.06v-4.28l-9.59-.87c-3.2-.3-4.32-1.27-4.32-3.85,0-3.05,1.48-4.07,6.06-4.07,3.73,0,6.5.06,9.11.23l.06,1.91c-3.45-.3-6.84-.44-9.81-.44-1.19,0-2.29.02-3.3.06v4.24l9.26.85c3.49.32,4.66,1.23,4.66,3.9,0,3.11-1.52,4.09-6.48,4.09-2.82,0-5.55-.08-9.36-.28Z"></path>
      </g>
      <g>
        <path class="cls-1" d="M283.74,3.88V.74h-1.96v-.74h4.77v.74h-1.96v3.14h-.86Z"></path>
        <path class="cls-1" d="M287.33,3.88V0h1.47l1.3,2.36h.02l1.33-2.36h1.44v3.88h-.86V.53h-.02l-1.4,2.49h-1.03l-1.38-2.49h-.02v3.35h-.86Z"></path>
      </g>
      <g>
        <rect class="cls-1" x="38.64" y="3.88" width="1.1" height="7.13"></rect>
        <rect class="cls-1" x="35.51" y="3.88" width=".91" height="8.92"></rect>
        <rect class="cls-1" x="32.38" y="3.88" width=".73" height="10.71"></rect>
        <rect class="cls-1" x="29.26" y="3.88" width=".55" height="12.5"></rect>
        <rect class="cls-1" x="26.13" y="3.88" width=".37" height="14.29"></rect>
        <rect class="cls-1" x="23" y="3.88" width=".18" height="16.08"></rect>
        <rect class="cls-1" x=".18" y="14.61" width=".73" height="7.13"></rect>
        <rect class="cls-1" x="3.37" y="12.83" width=".79" height="8.92"></rect>
        <rect class="cls-1" x="6.56" y="11.04" width=".85" height="10.71"></rect>
        <rect class="cls-1" x="9.75" y="9.25" width=".91" height="12.5"></rect>
        <rect class="cls-1" x="12.94" y="7.46" width=".98" height="14.29"></rect>
        <rect class="cls-1" x="16.13" y="5.67" width="1.04" height="16.08"></rect>
        <polygon class="cls-1" points="19.32 21.18 19.32 21.75 19.32 39.05 20.42 39.05 20.42 21.75 20.42 21.18 20.42 3.88 19.32 3.88 19.32 21.18"></polygon>
        <rect class="cls-1" y="31.91" width="1.1" height="7.13"></rect>
        <rect class="cls-1" x="3.31" y="30.13" width=".91" height="8.92"></rect>
        <rect class="cls-1" x="6.62" y="28.34" width=".73" height="10.71"></rect>
        <rect class="cls-1" x="9.93" y="26.55" width=".55" height="12.5"></rect>
        <rect class="cls-1" x="13.25" y="24.76" width=".37" height="14.29"></rect>
        <rect class="cls-1" x="16.56" y="22.97" width=".18" height="16.08"></rect>
        <rect class="cls-1" x="38.83" y="21.18" width=".73" height="7.14"></rect>
        <rect class="cls-1" x="35.57" y="21.18" width=".79" height="8.92"></rect>
        <rect class="cls-1" x="32.32" y="21.18" width=".85" height="10.71"></rect>
        <rect class="cls-1" x="29.07" y="21.18" width=".91" height="12.5"></rect>
        <rect class="cls-1" x="25.82" y="21.18" width=".98" height="14.29"></rect>
        <rect class="cls-1" x="22.57" y="21.18" width="1.04" height="16.08"></rect>
      </g>
    </g>
  </g>
</svg>