<svg xmlns="http://www.w3.org/2000/svg" viewBox="0 0 64 64">
  <rect width="64" height="64" rx="13" fill="#03070B"/>
  <g fill="#F5F8FF" transform="translate(12, 14.22) scale(1.011) translate(0, -3.88)">
    <rect x="38.64" y="3.88" width="1.1" height="7.13"/>
    <rect x="35.51" y="3.88" width=".91" height="8.92"/>
    <rect x="32.38" y="3.88" width=".73" height="10.71"/>
    <rect x="29.26" y="3.88" width=".55" height="12.5"/>
    <rect x="26.13" y="3.88" width=".37" height="14.29"/>
    <rect x="23" y="3.88" width=".18" height="16.08"/>
    <rect x=".18" y="14.61" width=".73" height="7.13"/>
    <rect x="3.37" y="12.83" width=".79" height="8.92"/>
    <rect x="6.56" y="11.04" width=".85" height="10.71"/>
    <rect x="9.75" y="9.25" width=".91" height="12.5"/>
    <rect x="12.94" y="7.46" width=".98" height="14.29"/>
    <rect x="16.13" y="5.67" width="1.04" height="16.08"/>
    <polygon points="19.32 21.18 19.32 21.75 19.32 39.05 20.42 39.05 20.42 21.75 20.42 21.18 20.42 3.88 19.32 3.88 19.32 21.18"/>
    <rect y="31.91" width="1.1" height="7.13"/>
    <rect x="3.31" y="30.13" width=".91" height="8.92"/>
    <rect x="6.62" y="28.34" width=".73" height="10.71"/>
    <rect x="9.93" y="26.55" width=".55" height="12.5"/>
    <rect x="13.25" y="24.76" width=".37" height="14.29"/>
    <rect x="16.56" y="22.97" width=".18" height="16.08"/>
    <rect x="38.83" y="21.18" width=".73" height="7.14"/>
    <rect x="35.57" y="21.18" width=".79" height="8.92"/>
    <rect x="32.32" y="21.18" width=".85" height="10.71"/>
    <rect x="29.07" y="21.18" width=".91" height="12.5"/>
    <rect x="25.82" y="21.18" width=".98" height="14.29"/>
    <rect x="22.57" y="21.18" width="1.04" height="16.08"/>
  </g>
</svg>
